{
    "asset": {
        "generator": "COLLADA2GLTF",
        "version": "2.0"
    },
    "scenes": [
        {
            "nodes": [
                0
            ]
        }
    ],
    "scene": 0,
    "nodes": [
        {
            "children": [
                1
            ],
            "matrix": [
                1.0,
                0.0,
                0.0,
                0.0,
                0.0,
                0.0,
                -1.0,
                0.0,
                0.0,
                1.0,
                0.0,
                0.0,
                0.0,
                0.0,
                0.0,
                1.0
            ],
            "name": "Z_UP"
        },
        {
            "children": [
                2
            ],
            "name": "abb_irb52_7_120"
        },
        {
            "mesh": 0,
            "children": [
                3
            ],
            "name": "base_link"
        },
        {
            "mesh": 1,
            "children": [
                4
            ],
            "matrix": [
                1.0,
                0.0,
                0.0,
                0.0,
                0.0,
                1.0,
                0.0,
                0.0,
                0.0,
                0.0,
                1.0,
                0.0,
                0.0,
                0.0,
                0.48649999499320986,
                1.0
            ],
            "name": "link_1"
        },
        {
            "mesh": 2,
            "children": [
                5
            ],
            "matrix": [
                1.0,
                0.0,
                0.0,
                0.0,
                0.0,
                1.0,
                0.0,
                0.0,
                0.0,
                0.0,
                1.0,
                0.0,
                0.14999999105930329,
                0.0,
                0.0,
                1.0
            ],
            "name": "link_2"
        },
        {
            "mesh": 3,
            "children": [
                6
            ],
            "matrix": [
                1.0,
                0.0,
                0.0,
                0.0,
                0.0,
                1.0,
                0.0,
                0.0,
                0.0,
                0.0,
                1.0,
                0.0,
                0.0,
                0.0,
                0.4750000238418579,
                1.0
            ],
            "name": "link_3"
        },
        {
            "mesh": 4,
            "children": [
                7
            ],
            "matrix": [
                1.0,
                0.0,
                0.0,
                0.0,
                0.0,
                1.0,
                0.0,
                0.0,
                0.0,
                0.0,
                1.0,
                0.0,
                0.6000000238418579,
                0.0,
                0.0,
                1.0
            ],
            "name": "link_4"
        },
        {
            "mesh": 5,
            "children": [
                8
            ],
            "name": "link_5"
        },
        {
            "mesh": 6,
            "matrix": [
                1.0,
                0.0,
                0.0,
                0.0,
                0.0,
                1.0,
                0.0,
                0.0,
                0.0,
                0.0,
                1.0,
                0.0,
                0.0650000050663948,
                0.0,
                0.0,
                1.0
            ],
            "name": "link_6"
        }
    ],
    "meshes": [
        {
            "primitives": [
                {
                    "attributes": {
                        "POSITION": 1
                    },
                    "indices": 0,
                    "mode": 4,
                    "material": 0
                }
            ],
            "name": "package://abb_irb52_support/meshes/irb52/visual/base_link.stl"
        },
        {
            "primitives": [
                {
                    "attributes": {
                        "POSITION": 3
                    },
                    "indices": 2,
                    "mode": 4,
                    "material": 1
                }
            ],
            "name": "package://abb_irb52_support/meshes/irb52/visual/link_1.stl"
        },
        {
            "primitives": [
                {
                    "attributes": {
                        "POSITION": 5
                    },
                    "indices": 4,
                    "mode": 4,
                    "material": 2
                }
            ],
            "name": "package://abb_irb52_support/meshes/irb52_7_120/visual/link_2.stl"
        },
        {
            "primitives": [
                {
                    "attributes": {
                        "POSITION": 7
                    },
                    "indices": 6,
                    "mode": 4,
                    "material": 3
                }
            ],
            "name": "package://abb_irb52_support/meshes/irb52/visual/link_3.stl"
        },
        {
            "primitives": [
                {
                    "attributes": {
                        "POSITION": 9
                    },
                    "indices": 8,
                    "mode": 4,
                    "material": 4
                }
            ],
            "name": "package://abb_irb52_support/meshes/irb52/visual/link_4.stl"
        },
        {
            "primitives": [
                {
                    "attributes": {
                        "POSITION": 11
                    },
                    "indices": 10,
                    "mode": 4,
                    "material": 5
                }
            ],
            "name": "package://abb_irb52_support/meshes/irb52/visual/link_5.stl"
        },
        {
            "primitives": [
                {
                    "attributes": {
                        "POSITION": 13
                    },
                    "indices": 12,
                    "mode": 4,
                    "material": 6
                }
            ],
            "name": "package://abb_irb52_support/meshes/irb52/visual/link_6.stl"
        }
    ],
    "accessors": [
        {
            "bufferView": 0,
            "byteOffset": 0,
            "componentType": 5123,
            "count": 6474,
            "max": [
                1144
            ],
            "min": [
                0
            ],
            "type": "SCALAR"
        },
        {
            "bufferView": 1,
            "byteOffset": 0,
            "componentType": 5126,
            "count": 1145,
            "max": [
                0.2779999971389771,
                0.24176518619060517,
                0.1710000038146973
            ],
            "min": [
                -0.3822622299194336,
                -0.24150314927101136,
                0.0
            ],
            "type": "VEC3"
        },
        {
            "bufferView": 0,
            "byteOffset": 12948,
            "componentType": 5123,
            "count": 27120,
            "max": [
                4519
            ],
            "min": [
                0
            ],
            "type": "SCALAR"
        },
        {
            "bufferView": 1,
            "byteOffset": 13740,
            "componentType": 5126,
            "count": 4520,
            "max": [
                0.31849271059036257,
                0.22891250252723698,
                0.1749989688396454
            ],
            "min": [
                -0.2641561627388001,
                -0.16300001740455628,
                -0.3619999885559082
            ],
            "type": "VEC3"
        },
        {
            "bufferView": 0,
            "byteOffset": 67188,
            "componentType": 5123,
            "count": 4716,
            "max": [
                787
            ],
            "min": [
                0
            ],
            "type": "SCALAR"
        },
        {
            "bufferView": 1,
            "byteOffset": 67980,
            "componentType": 5126,
            "count": 788,
            "max": [
                0.1028404012322426,
                -0.10650000721216202,
                0.5445940494537354
            ],
            "min": [
                -0.1204986497759819,
                -0.2524999976158142,
                -0.08827240765094757
            ],
            "type": "VEC3"
        },
        {
            "bufferView": 0,
            "byteOffset": 76620,
            "componentType": 5123,
            "count": 13884,
            "max": [
                2315
            ],
            "min": [
                0
            ],
            "type": "SCALAR"
        },
        {
            "bufferView": 1,
            "byteOffset": 77436,
            "componentType": 5126,
            "count": 2316,
            "max": [
                0.3139999806880951,
                0.16862483322620393,
                0.10797031223773956
            ],
            "min": [
                -0.1776045262813568,
                -0.119999997317791,
                -0.13584332168102265
            ],
            "type": "VEC3"
        },
        {
            "bufferView": 0,
            "byteOffset": 104388,
            "componentType": 5123,
            "count": 19098,
            "max": [
                3186
            ],
            "min": [
                0
            ],
            "type": "SCALAR"
        },
        {
            "bufferView": 1,
            "byteOffset": 105228,
            "componentType": 5126,
            "count": 3187,
            "max": [
                0.0559999942779541,
                0.07000000029802323,
                0.05599994584918022
            ],
            "min": [
                -0.28600001335144045,
                -0.06447501480579376,
                -0.05600004270672798
            ],
            "type": "VEC3"
        },
        {
            "bufferView": 0,
            "byteOffset": 142584,
            "componentType": 5123,
            "count": 1632,
            "max": [
                271
            ],
            "min": [
                0
            ],
            "type": "SCALAR"
        },
        {
            "bufferView": 1,
            "byteOffset": 143472,
            "componentType": 5126,
            "count": 272,
            "max": [
                0.041999995708465579,
                0.013650000095367432,
                0.04200000688433647
            ],
            "min": [
                -0.041999995708465579,
                -0.013650000095367432,
                -0.04194431379437447
            ],
            "type": "VEC3"
        },
        {
            "bufferView": 0,
            "byteOffset": 145848,
            "componentType": 5123,
            "count": 5256,
            "max": [
                867
            ],
            "min": [
                0
            ],
            "type": "SCALAR"
        },
        {
            "bufferView": 1,
            "byteOffset": 146736,
            "componentType": 5126,
            "count": 868,
            "max": [
                -2.3841857377249204e-9,
                0.024984119459986688,
                0.024995042011141778
            ],
            "min": [
                -0.06499999761581421,
                -0.024984119459986688,
                -0.02499513328075409
            ],
            "type": "VEC3"
        }
    ],
    "materials": [
        {
            "pbrMetallicRoughness": {
                "baseColorFactor": [
                    0.7372549176216126,
                    0.3490195870399475,
                    0.1607843041419983,
                    1.0
                ],
                "metallicFactor": 1.0,
                "roughnessFactor": 0.5
            },
            "name": "gkmodel0_base_link_geom0"
        },
        {
            "pbrMetallicRoughness": {
                "baseColorFactor": [
                    0.7372549176216126,
                    0.3490195870399475,
                    0.1607843041419983,
                    1.0
                ],
                "metallicFactor": 1.0,
                "roughnessFactor": 0.5
            },
            "name": "gkmodel0_link_1_geom0"
        },
        {
            "pbrMetallicRoughness": {
                "baseColorFactor": [
                    0.7372549176216126,
                    0.3490195870399475,
                    0.1607843041419983,
                    1.0
                ],
                "metallicFactor": 1.0,
                "roughnessFactor": 0.5
            },
            "name": "gkmodel0_link_2_geom0"
        },
        {
            "pbrMetallicRoughness": {
                "baseColorFactor": [
                    0.7372549176216126,
                    0.3490195870399475,
                    0.1607843041419983,
                    1.0
                ],
                "metallicFactor": 1.0,
                "roughnessFactor": 0.5
            },
            "name": "gkmodel0_link_3_geom0"
        },
        {
            "pbrMetallicRoughness": {
                "baseColorFactor": [
                    0.7372549176216126,
                    0.3490195870399475,
                    0.1607843041419983,
                    1.0
                ],
                "metallicFactor": 1.0,
                "roughnessFactor": 0.5
            },
            "name": "gkmodel0_link_4_geom0"
        },
        {
            "pbrMetallicRoughness": {
                "baseColorFactor": [
                    0.7372549176216126,
                    0.3490195870399475,
                    0.1607843041419983,
                    1.0
                ],
                "metallicFactor": 1.0,
                "roughnessFactor": 0.5
            },
            "name": "gkmodel0_link_5_geom0"
        },
        {
            "pbrMetallicRoughness": {
                "baseColorFactor": [
                    0.1882353127002716,
                    0.19607841968536378,
                    0.2039216011762619,
                    1.0
                ],
                "metallicFactor": 1.0,
                "roughnessFactor": 0.5
            },
            "name": "gkmodel0_link_6_geom0"
        }
    ],
    "bufferViews": [
        {
            "buffer": 0,
            "byteOffset": 157152,
            "byteLength": 156360,
            "target": 34963
        },
        {
            "buffer": 0,
            "byteOffset": 0,
            "byteLength": 157152,
            "byteStride": 12,
            "target": 34962
        }
    ],
    "buffers": [
        {
            "byteLength": 313512,
            "uri": "data:application/octet-stream;base64,"
        }
    ]
}
